<?xml version="1.0" encoding="UTF-8" standalone="no"?>
<svg xmlns="http://www.w3.org/2000/svg" width="45" height="50" version="1.0">
  <path fill="#9e9e9e" stroke="#000" stroke-width=".79999995" d="m42.652794.51545799.614119 1.48685001c-1.551503.7542461-2.698934 1.5030575-3.442299 2.2464366-.743448.7434695-1.265986 1.5730879-1.567618 2.4888577-.301713.9158553-.452549 2.2787998-.452509 4.0888377-.00004.581849.010734 1.357596.032323 2.327244l.549474 24.145152c.043056 2.650482.32318 4.385137.840373 5.203975.366275.581817.808009.872722 1.325204.872716.62485.000006 1.594509-.624901 2.908983-1.874724l.93734 1.195945-6.0119 5.13933-2.003967 1.648464c-1.702331-.797296-2.914406-1.853174-3.636229-3.167637-.721893-1.314457-1.125919-3.415439-1.212077-6.302951L19.02538 49.484542c-6.960026-4.589837-11.7005885-6.884755-14.2216985-6.884762-.624899.000007-1.152825.193943-1.583779.58181-.323226.280138-.484836.678786-.484831 1.195945-.000005.560266.204701 1.1744.614119 1.842401.538695.905042.808044 1.497627.808051 1.777755-.000007.409424-.150843.759588-.452509 1.050493-.301678.290905-.667994.436358-1.098949.436358-.538706 0-.969666-.215486-1.292882-.646457-.47405901-.581809-.71108801-1.336008-.71108501-2.262598-.000003-1.034327.296282-2.19256.88885601-3.474704.592567-1.282131 1.470648-2.677399 2.634246-4.185806.237022-.323217.452502-.624896.646442-.905039l4.622052-6.302951c-3.124473-2.348773-5.316983-4.600594-6.577536-6.755471-1.260564-2.154829-1.89084301-4.568264-1.89084001-7.240314-.000003-3.102957.79188601-5.979685 2.37567101-8.6301947 1.583772-2.6504288 3.964828-4.7406362 7.1431705-6.2706286 3.178319-1.5298989 6.448229-2.29487174 9.80974-2.29492071C25.40357.51550696 30.370385 2.304035 35.15408 5.8810474c1.163555-1.2282227 2.284051-2.2356164 3.361492-3.0221844 1.07736-.7864747 2.456432-1.567609 4.137222-2.34340501zM26.750349 8.014354c-2.715078-1.3359674-5.419353-2.0039718-8.112832-2.0040153-2.865906.0000435-5.559407.630338-8.080511 1.8908854-2.5211305 1.2606306-4.4065805 2.8875449-5.6563575 4.8807469-1.249792 1.993276-1.874684 4.034999-1.874679 6.125176-.000005 4.417479 2.391823 8.328537 7.1754935 11.733186l10.795563-14.771532c-1.616124-.883456-3.070615-1.325201-4.363476-1.325235-1.788504.000034-3.253768.840427-4.395798 2.52118-.215495.344809-.430974.517196-.646441.517165-.129302.000031-.253203-.064614-.371703-.193937-.118527-.129259-.177785-.290873-.177771-.484842-.000014-.667972.339368-1.594559 1.018144-2.779764.678748-1.185134 1.68073-2.144043 3.005949-2.876732 1.325185-.732611 2.720419-1.098936 4.185705-1.098975 1.508339.000039 3.221406.366364 5.139205 1.098975l2.359509-3.232282zm4.169543 3.329251c-.802098-1.0336-1.756634-1.8220118-2.876662-2.5211804L13.918498 28.08683h17.389259l-.387865-16.743225zM10.427718 32.805962l-2.9089845 4.040354 16.4195975 7.0787 7.628003-5.624172-.129289-5.494882H10.427718z" font-family="Bitstream Vera Sans" font-size="67.04602051" font-weight="400"/>
</svg>